# xmcd
#
# Track frame offsets: 
#        150
#        17717
#        37646
#        62130
#        78808
#        97533
#        119867
#        126332
#        144211
#        167445
#
# Disc length: 2527 seconds
#
# Revision: 0
# Processed by: cddbd v1.5.2PL0 Copyright (c) Steve Scherf et al.
# Submitted via: ExactAudioCopy v0.95b3
#
DISCID=7009dd0a
DTITLE=Jesse Campbell - Hymns From The Heart Vol.1
DYEAR=2006
DGENRE=Gospel
TTITLE0=Amazing Grace
TTITLE1=What A Friend We Have In Jesus
TTITLE2=Leaning On Jesus (Medley)
TTITLE3=It Is Well
TTITLE4=Glory To His Name
TTITLE5=His Eye Is On The Sparrow
TTITLE6=Holy, Holy, Holy (Instrumental)
TTITLE7=Amazing Grace (Acapella)
TTITLE8=Tis So Sweet To Trust In Jesus (Medley)
TTITLE9=Great Is Thy Faithfulness
EXTD=
EXTT0=
EXTT1=
EXTT2=
EXTT3=
EXTT4=
EXTT5=
EXTT6=
EXTT7=
EXTT8=
EXTT9=
PLAYORDER=
